<svg xmlns="http://www.w3.org/2000/svg" width="24" height="24" viewBox="0 0 24 24"><path d="M43.307,21.042l-.043.037-6.072,4.544L43.307,30.2c.032.031.053.06.081.091a1.675,1.675,0,0,0,.066-.444V21.395a1.675,1.675,0,0,0-.066-.444c-.028.031-.049.06-.081.091" transform="translate(-23.781 -13.623)" fill="#fffffe" fill-rule="evenodd"/><path d="M20.032,33.751a1.772,1.772,0,0,1-1.2-.492l-4.917,4.6a.909.909,0,0,0,.7.361h10.82a.91.91,0,0,0,.7-.361l-4.915-4.6a1.775,1.775,0,0,1-1.2.494" transform="translate(-8.032 -21.144)" fill="#fffffe" fill-rule="evenodd"/><path d="M12.148,21.042c-.032-.031-.053-.06-.081-.091a1.675,1.675,0,0,0-.066.444v8.458a1.674,1.674,0,0,0,.066.444c.028-.031.049-.06.081-.091l.043-.037,6.072-4.544-6.115-4.581" transform="translate(-7.673 -13.623)" fill="#fffffe" fill-rule="evenodd"/><path d="M20.032,24.677a1.227,1.227,0,0,0,.955-.482l.034-.037,5.126-4.8a.909.909,0,0,0-.7-.361H14.622a.91.91,0,0,0-.7.361l5.16,4.834a1.227,1.227,0,0,0,.955.482" transform="translate(-8.032 -12.117)" fill="#fffffe" fill-rule="evenodd"/><path d="M19.5,15.75a1.485,1.485,0,0,1-.059.393c-.025-.027-.044-.053-.072-.081L13.947,12l5.384-4.029.038-.033c.028-.028.047-.054.072-.081a1.485,1.485,0,0,1,.059.393v7.5ZM18,16.875H6a1.109,1.109,0,0,1-.781-.32l5.453-4.082a2.239,2.239,0,0,0,2.658,0l5.45,4.083a1.109,1.109,0,0,1-.781.32ZM4.631,16.062c-.028.028-.047.054-.072.081A1.485,1.485,0,0,1,4.5,15.75V8.25a1.485,1.485,0,0,1,.059-.393c.025.027.044.053.072.081L10.053,12,4.669,16.029l-.038.033ZM6,7.125H18a1.109,1.109,0,0,1,.781.32L13.1,11.7l-.038.033a1.525,1.525,0,0,1-2.117,0L5.219,7.445A1.109,1.109,0,0,1,6,7.125ZM12,0A12,12,0,1,0,24,12,12,12,0,0,0,12,0Z" fill="#abc6d6" fill-rule="evenodd"/></svg>